<svg height="512.001pt" viewBox="0 0 512.001 512.001" width="512.001pt" xmlns="http://www.w3.org/2000/svg"><g fill="#9c8f9a"><path d="m393.261719 209.441406h94.15625c13.554687 0 24.582031-11.027344 24.582031-24.582031 0-13.550781-11.027344-24.582031-24.582031-24.582031h-94.15625c-4.152344 0-7.519531 3.367187-7.519531 7.519531v34.128906c0 4.148438 3.367187 7.515625 7.519531 7.515625zm0 0"/><path d="m487.417969 231.417969h-94.15625c-4.152344 0-7.519531 3.367187-7.519531 7.519531v34.125c0 4.152344 3.367187 7.519531 7.519531 7.519531h94.15625c13.554687 0 24.582031-11.027343 24.582031-24.582031s-11.027344-24.582031-24.582031-24.582031zm0 0"/><path d="m487.417969 302.558594h-94.15625c-4.152344 0-7.519531 3.367187-7.519531 7.515625v34.128906c0 4.152344 3.367187 7.519531 7.519531 7.519531h94.15625c13.554687 0 24.582031-11.03125 24.582031-24.582031 0-13.554687-11.027344-24.582031-24.582031-24.582031zm0 0"/><path d="m118.738281 160.277344h-94.15625c-13.554687 0-24.582031 11.027344-24.582031 24.582031s11.027344 24.582031 24.582031 24.582031h94.15625c4.152344 0 7.519531-3.367187 7.519531-7.515625v-34.128906c0-4.152344-3.367187-7.519531-7.519531-7.519531zm0 0"/><path d="m118.738281 231.417969h-94.15625c-13.554687 0-24.582031 11.027343-24.582031 24.582031s11.027344 24.582031 24.582031 24.582031h94.15625c4.152344 0 7.519531-3.367187 7.519531-7.519531v-34.125c0-4.152344-3.367187-7.519531-7.519531-7.519531zm0 0"/><path d="m118.738281 302.558594h-94.15625c-13.554687 0-24.582031 11.027344-24.582031 24.582031 0 13.550781 11.027344 24.582031 24.582031 24.582031h94.15625c4.152344 0 7.519531-3.367187 7.519531-7.519531v-34.128906c0-4.148438-3.367187-7.515625-7.519531-7.515625zm0 0"/><path d="m344.203125 385.742188h-34.128906c-4.148438 0-7.515625 3.367187-7.515625 7.519531v94.15625c0 13.554687 11.027344 24.582031 24.582031 24.582031 13.550781 0 24.582031-11.027344 24.582031-24.582031v-94.15625c0-4.152344-3.367187-7.519531-7.519531-7.519531zm0 0"/><path d="m273.0625 385.742188h-34.125c-4.152344 0-7.519531 3.367187-7.519531 7.519531v94.15625c0 13.554687 11.027343 24.582031 24.582031 24.582031s24.582031-11.027344 24.582031-24.582031v-94.15625c0-4.152344-3.367187-7.519531-7.519531-7.519531zm0 0"/><path d="m201.925781 385.742188h-34.128906c-4.152344 0-7.519531 3.367187-7.519531 7.519531v94.15625c0 13.554687 11.03125 24.582031 24.582031 24.582031 13.554687 0 24.582031-11.027344 24.582031-24.582031v-94.15625c0-4.152344-3.367187-7.519531-7.515625-7.519531zm0 0"/><path d="m327.140625 0c-13.554687 0-24.582031 11.027344-24.582031 24.582031v94.15625c0 4.152344 3.367187 7.519531 7.515625 7.519531h34.128906c4.152344 0 7.519531-3.367187 7.519531-7.519531v-94.15625c0-13.554687-11.027344-24.582031-24.582031-24.582031zm0 0"/><path d="m256 0c-13.554688 0-24.582031 11.027344-24.582031 24.582031v94.15625c0 4.152344 3.367187 7.519531 7.519531 7.519531h34.125c4.152344 0 7.519531-3.367187 7.519531-7.519531v-94.15625c0-13.554687-11.027343-24.582031-24.582031-24.582031zm0 0"/><path d="m184.859375 0c-13.550781 0-24.582031 11.027344-24.582031 24.582031v94.15625c0 4.152344 3.367187 7.519531 7.519531 7.519531h34.128906c4.148438 0 7.515625-3.367187 7.515625-7.519531v-94.15625c0-13.554687-11.027344-24.582031-24.582031-24.582031zm0 0"/></g><path d="m118.738281 302.558594h-27.066406v49.164062h27.066406c4.152344 0 7.519531-3.367187 7.519531-7.519531v-34.128906c0-4.148438-3.367187-7.515625-7.519531-7.515625zm0 0" fill="#8c808a"/><path d="m118.738281 231.417969h-27.066406v49.164062h27.066406c4.152344 0 7.519531-3.367187 7.519531-7.519531v-34.125c0-4.152344-3.367187-7.519531-7.519531-7.519531zm0 0" fill="#8c808a"/><path d="m118.738281 160.277344h-27.066406v49.164062h27.066406c4.152344 0 7.519531-3.367187 7.519531-7.515625v-34.128906c0-4.152344-3.367187-7.519531-7.519531-7.519531zm0 0" fill="#8c808a"/><path d="m420.328125 302.558594h-27.066406c-4.152344 0-7.519531 3.367187-7.519531 7.515625v34.128906c0 4.152344 3.367187 7.519531 7.519531 7.519531h27.066406zm0 0" fill="#8c808a"/><path d="m420.328125 231.417969h-27.066406c-4.152344 0-7.519531 3.367187-7.519531 7.519531v34.125c0 4.152344 3.367187 7.519531 7.519531 7.519531h27.066406zm0 0" fill="#8c808a"/><path d="m420.328125 160.277344h-27.066406c-4.152344 0-7.519531 3.367187-7.519531 7.519531v34.128906c0 4.148438 3.367187 7.515625 7.519531 7.515625h27.066406zm0 0" fill="#8c808a"/><path d="m201.925781 385.742188h-34.128906c-4.152344 0-7.519531 3.367187-7.519531 7.519531v27.066406h49.164062v-27.066406c0-4.152344-3.367187-7.519531-7.515625-7.519531zm0 0" fill="#8c808a"/><path d="m273.0625 385.742188h-34.125c-4.152344 0-7.519531 3.367187-7.519531 7.519531v27.066406h49.164062v-27.066406c0-4.152344-3.367187-7.519531-7.519531-7.519531zm0 0" fill="#8c808a"/><path d="m344.203125 385.742188h-34.128906c-4.148438 0-7.515625 3.367187-7.515625 7.519531v27.066406h49.164062v-27.066406c0-4.152344-3.367187-7.519531-7.519531-7.519531zm0 0" fill="#8c808a"/><path d="m160.277344 91.671875v27.066406c0 4.152344 3.367187 7.519531 7.519531 7.519531h34.128906c4.148438 0 7.515625-3.367187 7.515625-7.519531v-27.066406zm0 0" fill="#8c808a"/><path d="m231.417969 91.671875v27.066406c0 4.152344 3.367187 7.519531 7.519531 7.519531h34.125c4.152344 0 7.519531-3.367187 7.519531-7.519531v-27.066406zm0 0" fill="#8c808a"/><path d="m302.558594 91.671875v27.066406c0 4.152344 3.367187 7.519531 7.515625 7.519531h34.128906c4.152344 0 7.519531-3.367187 7.519531-7.519531v-27.066406zm0 0" fill="#8c808a"/><path d="m363.1875 111.21875h-214.375c-20.730469 0-37.59375 16.863281-37.59375 37.59375v214.375c0 20.730469 16.863281 37.59375 37.59375 37.59375h214.375c20.730469 0 37.59375-16.863281 37.59375-37.59375v-214.375c0-20.730469-16.863281-37.59375-37.59375-37.59375zm0 0" fill="#82d361"/><path d="m363.1875 366.179688h-214.375c-20.730469 0-37.59375-16.863282-37.59375-37.589844v34.597656c0 20.730469 16.863281 37.59375 37.59375 37.59375h214.375c20.730469 0 37.59375-16.863281 37.59375-37.59375v-34.597656c0 20.726562-16.863281 37.589844-37.59375 37.589844zm0 0" fill="#6acb44"/><path d="m336.429688 156.949219h-160.859376c-10.265624 0-18.621093 8.355469-18.621093 18.621093v160.859376c0 10.265624 8.355469 18.621093 18.621093 18.621093h160.859376c10.265624 0 18.621093-8.355469 18.621093-18.621093v-160.859376c0-10.265624-8.355469-18.621093-18.621093-18.621093zm0 0" fill="#ffe02f"/><path d="m336.429688 320.453125h-160.859376c-10.265624 0-18.621093-8.355469-18.621093-18.621094v34.597657c0 10.265624 8.355469 18.621093 18.621093 18.621093h160.859376c10.265624 0 18.621093-8.355469 18.621093-18.621093v-34.597657c0 10.265625-8.355469 18.621094-18.621093 18.621094zm0 0" fill="#ffd500"/></svg>